# xmcd
#
# Track frame offsets:
#	150
#	11745
#	20912
#	34107
#	46190
#	55717
#	65767
#	77002
#	89780
#	99420
#	110377
#	120777
#	129585
#	141622
#	150337
#	160237
#	171640
#	181480
#	195260
#	207227
#	221032
#	237292
#	247920
#	259462
#
# Disc length: 3608 seconds
#
# Revision: 0
# Processed by: cddbd v1.4PL0 Copyright (c) Steve Scherf et al.
# Submitted via: dBpowerAMP V4.0
#
DISCID=560e1618
DTITLE=Various Artist - Soul Underground vol 2
DYEAR=1900
DGENRE=Soul
TTITLE0=Track 01 - Beverly Ann Gibson - A Three Dollar Bill
TTITLE1=Track02  - Original Cadillacs - I'll Never Let You Go
TTITLE2=Track03  - Geraldine Hunt - Never Ever Leave Me
TTITLE3=Track04 -  Kathy And The Calenders - Please Dont Go
TTITLE4=Track05 -  The Skyliners - Everything Is Fine  
TTITLE5=Track06 -  The Orlons - Spinnin' Top
TTITLE6=Track07 -  Big Maybelle - No Better For You
TTITLE7=Track08 -  The Clovers -  Try My Loving On You 
TTITLE8=Track09 -  Don Gardner - I'm In Such Misery
TTITLE9=Track10 -  Jessica James And The Outlaws - We'll Be Makin' Out
TTITLE10=Track11 -  Robert Neal - I'm So Glad
TTITLE11=Track12 -  Honey and The Bees - Help Me
TTITLE12=Track13 -  Patty Livingstone - I've Got My Baby
TTITLE13=Track14 -  Duff Thurmond - Now That You Left Me
TTITLE14=Track15 -  The Baltimore and Ohio Marching Band - Condition Red
TTITLE15=Track16 -  Lainie Hill - Time Marches On
TTITLE16=Track17 -  Chris Towns Unit - Turn Me On
TTITLE17=Track18 -  June Adams - The Human Race
TTITLE18=Track19 -  Kenny Wells - Isn't It Just A Shame
TTITLE19=Track20 -  Purple Mundi - Stop Hurting Me Baby
TTITLE20=Track21 -  Charles Johnson - Never Had A Love So Good
TTITLE21=Track22 -  Janice - I Need You Like A Baby
TTITLE22=Track23 -  Esther Phillips - Nobody But You
TTITLE23=Track24 -  J.J.Jackson - It Seems Like I've Been Here Before
EXTD=Soul Underground vol 2
EXTT0=
EXTT1=
EXTT2=
EXTT3=
EXTT4=
EXTT5=
EXTT6=
EXTT7=
EXTT8=
EXTT9=
EXTT10=
EXTT11=
EXTT12=
EXTT13=
EXTT14=
EXTT15=
EXTT16=
EXTT17=
EXTT18=
EXTT19=
EXTT20=
EXTT21=
EXTT22=
EXTT23=
PLAYORDER=
